<svg width="40" height="40" viewBox="0 0 40 40" fill="none" xmlns="http://www.w3.org/2000/svg">
<path d="M37.8941 15.6424L23.806 1.65061C21.5906 -0.550204 17.965 -0.550204 15.7496 1.65061L1.66157 15.6424C-0.553858 17.8433 -0.553858 21.4449 1.66157 23.6457L15.7496 37.6408C16.269 38.1567 16.8672 38.5453 17.5049 38.8196C24.2235 42.8131 30.5542 35.3649 30.5542 35.3649C28.5656 35.6229 27.3461 35.7208 26.1661 35.2963L37.8973 23.6425C40.1128 21.4416 40.1128 17.84 37.8973 15.6392L37.8941 15.6424Z" fill="url(#paint0_linear_192_57)"/>
<path d="M31.5009 13.0563C30.3997 11.8776 28.7464 11.2898 26.5342 11.2898H13.9549C13.9549 11.2898 13.9286 11.2865 13.9122 11.2865H8.80091C8.20268 11.2865 7.7162 11.7731 7.7162 12.3641V14.9829C7.7162 15.5771 8.20596 16.0604 8.80091 16.0604C11.3286 16.0604 13.8563 16.0473 16.3873 16.0473V19.9135C14.494 19.9135 12.6007 19.9135 10.7074 19.9135C10.1749 19.9135 9.64238 19.9135 9.10988 19.9135C8.53137 19.9135 8.05805 20.3837 8.05805 20.9584V23.3551C8.05805 23.9298 8.53137 24.4 9.10988 24.4C11.539 24.4 13.9615 24.3771 16.3906 24.3771V27.0514C16.3906 28.1257 16.3807 29.2 16.3807 30.2743V32.2139C16.3807 32.8833 16.9329 33.4318 17.6068 33.4318H21.2915C21.9653 33.4318 22.5175 32.8833 22.5175 32.2139V27.4171C22.5175 27.4171 22.5175 27.4106 22.5175 27.4073V25.2065H25.8604C28.3223 25.2065 30.1532 24.5763 31.3496 23.3192C32.5494 22.0588 33.1476 20.3118 33.1476 18.0784C33.1476 15.8449 32.5987 14.2253 31.4976 13.0465L31.5009 13.0563ZM26.4948 20.0441C26.0182 20.5012 25.1931 20.7298 24.0164 20.7298H22.5208V15.7894H24.2596C25.4002 15.7894 26.1759 16.031 26.5901 16.5143C27.0043 16.9976 27.2113 17.5853 27.2113 18.2808C27.2113 18.9763 26.9747 19.5837 26.4981 20.0408L26.4948 20.0441Z" fill="white"/>
<defs>
<linearGradient id="paint0_linear_192_57" x1="19.7762" y1="0.207347" x2="19.7762" y2="39.502" gradientUnits="userSpaceOnUse">
<stop stop-color="#66CD99"/>
<stop offset="1" stop-color="#00AB55"/>
</linearGradient>
</defs>
</svg>
