<svg width="131" height="40" viewBox="0 0 131 40" fill="none" xmlns="http://www.w3.org/2000/svg">
<path d="M37.8941 15.6424L23.806 1.65061C21.5906 -0.550204 17.965 -0.550204 15.7496 1.65061L1.66157 15.6424C-0.553858 17.8433 -0.553858 21.4449 1.66157 23.6457L15.7496 37.6408C16.269 38.1567 16.8672 38.5453 17.5049 38.8196C24.2235 42.8131 30.5542 35.3649 30.5542 35.3649C28.5656 35.6229 27.3461 35.7208 26.1661 35.2963L37.8973 23.6425C40.1128 21.4416 40.1128 17.84 37.8973 15.6392L37.8941 15.6424Z" fill="url(#paint0_linear_153_1987)"/>
<path d="M31.5009 13.0563C30.3997 11.8776 28.7464 11.2898 26.5342 11.2898H13.9549C13.9549 11.2898 13.9286 11.2865 13.9122 11.2865H8.80091C8.20268 11.2865 7.7162 11.7731 7.7162 12.3641V14.9829C7.7162 15.5771 8.20596 16.0604 8.80091 16.0604C11.3286 16.0604 13.8563 16.0473 16.3873 16.0473V19.9135C14.494 19.9135 12.6007 19.9135 10.7074 19.9135C10.1749 19.9135 9.64238 19.9135 9.10988 19.9135C8.53137 19.9135 8.05805 20.3837 8.05805 20.9584V23.3551C8.05805 23.9298 8.53137 24.4 9.10988 24.4C11.539 24.4 13.9615 24.3771 16.3906 24.3771V27.0514C16.3906 28.1257 16.3807 29.2 16.3807 30.2743V32.2139C16.3807 32.8833 16.9329 33.4318 17.6068 33.4318H21.2915C21.9653 33.4318 22.5175 32.8833 22.5175 32.2139V27.4171C22.5175 27.4171 22.5175 27.4106 22.5175 27.4073V25.2065H25.8604C28.3223 25.2065 30.1532 24.5763 31.3496 23.3192C32.5494 22.0588 33.1476 20.3118 33.1476 18.0784C33.1476 15.8449 32.5987 14.2253 31.4976 13.0465L31.5009 13.0563ZM26.4948 20.0441C26.0182 20.5012 25.1931 20.7298 24.0164 20.7298H22.5208V15.7894H24.2596C25.4002 15.7894 26.1759 16.031 26.5901 16.5143C27.0043 16.9976 27.2113 17.5853 27.2113 18.2808C27.2113 18.9763 26.9747 19.5837 26.4981 20.0408L26.4948 20.0441Z" fill="white"/>
<path d="M44.8066 10H56.6205V13.1441H48.6422V18.0371H55.4549V21.1812H48.6422V28.7871H44.8066V10Z" fill="white"/>
<path d="M58.9248 10H65.2207C69.4707 10 72.7332 11.4703 72.7332 15.9055C72.7332 20.3407 69.4439 22.1162 65.3231 22.1162H62.7579V28.7823H58.9224V10H58.9248ZM65.0646 19.1513C67.7078 19.1513 68.9757 18.0613 68.9757 15.9055C68.9757 13.7497 67.5761 12.9891 64.9354 12.9891H62.7604V19.1489H65.0671L65.0646 19.1513Z" fill="white"/>
<path d="M75.169 10H79.4191L82.684 18.7953C83.0985 19.9604 83.4618 21.203 83.8495 22.3947H83.9788C84.3933 21.203 84.7298 19.9604 85.1443 18.7953L88.3312 10H92.5788V28.7823H89.0822V20.9487C89.0822 19.1731 89.3675 16.5643 89.5748 14.7888H89.4456L87.8923 19.1998L84.9395 27.0843H82.7377L79.758 19.1998L78.2291 14.7888H78.1243C78.3047 16.5643 78.6168 19.1756 78.6168 20.9487V28.7823H75.1714V10H75.169Z" fill="white"/>
<path d="M95.222 24.9309C95.222 21.8885 97.736 20.2922 103.59 19.6842C103.512 18.289 102.891 17.2256 101.103 17.2256C99.7549 17.2256 98.4601 17.8094 97.1142 18.57L95.7414 16.1114C97.4507 15.0722 99.5233 14.2365 101.803 14.2365C105.483 14.2365 107.372 16.3924 107.372 20.4981V28.7871H104.263L104.005 27.2659H103.9C102.63 28.3317 101.179 29.1408 99.5208 29.1408C96.9289 29.1408 95.2196 27.341 95.2196 24.9333L95.222 24.9309ZM103.59 24.8291V21.9636C100.04 22.3947 98.8503 23.3588 98.8503 24.6257C98.8503 25.7399 99.6525 26.2219 100.767 26.2219C101.881 26.2219 102.659 25.7157 103.59 24.8267V24.8291Z" fill="white"/>
<path d="M110.274 23.8142V17.5284H108.228V14.7646L110.481 14.5878L110.923 10.7606H114.083V14.5878H117.657V17.5284H114.083V23.8142C114.083 25.4371 114.756 26.1977 116.05 26.1977C116.516 26.1977 117.087 26.0451 117.474 25.8925L118.096 28.6054C117.318 28.8598 116.309 29.1383 115.038 29.1383C111.593 29.1383 110.271 26.9825 110.271 23.8142H110.274Z" fill="white"/>
<path d="M118.177 21.685C118.177 17.0972 121.493 14.2317 124.938 14.2317C128.927 14.2317 131 17.0972 131 20.9995C131 21.7092 130.922 22.3947 130.82 22.7242H121.881C122.193 25.0568 123.746 26.2728 125.897 26.2728C127.089 26.2728 128.125 25.9167 129.162 25.2845L130.456 27.5663C129.032 28.5303 127.191 29.1383 125.404 29.1383C121.337 29.1383 118.177 26.3745 118.177 21.685ZM127.738 20.2389C127.738 18.3374 126.857 17.1215 124.992 17.1215C123.463 17.1215 122.117 18.1873 121.832 20.2389H127.74H127.738Z" fill="white"/>
<defs>
<linearGradient id="paint0_linear_153_1987" x1="19.7762" y1="0.207347" x2="19.7762" y2="39.502" gradientUnits="userSpaceOnUse">
<stop stop-color="#66CD99"/>
<stop offset="1" stop-color="#00AB55"/>
</linearGradient>
</defs>
</svg>
