<?xml version="1.0" encoding="utf-8"?>
<!-- Generator: Adobe Illustrator 28.2.0, SVG Export Plug-In . SVG Version: 6.00 Build 0)  -->
<svg version="1.1" id="Layer_1" xmlns="http://www.w3.org/2000/svg" xmlns:xlink="http://www.w3.org/1999/xlink" x="0px" y="0px"
	 viewBox="0 0 345.28 106.18" style="enable-background:new 0 0 345.28 106.18;" xml:space="preserve">
<style type="text/css">
	.st0{fill:#FFFFFF;}
	.st1{fill:#888;}
	.st2{fill:#777;}
	.st3{fill:#999;}
</style>
<g>
	<g>
		<g>
			<path class="st0" d="M30.06,309.57c-2.08,1.04-3.63,2.83-4.37,5.04l-13.92,41.86c-0.74,2.2-0.57,4.57,0.47,6.66
				c1.04,2.07,2.83,3.62,5.04,4.36l45.68,15.34c2.22,0.73,4.58,0.57,6.65-0.48c2.08-1.05,3.64-2.83,4.36-5.04l13.93-41.85
				c1.52-4.56-0.96-9.5-5.51-11.03l-45.67-15.33C34.49,308.36,32.14,308.52,30.06,309.57"/>
			<path class="st1" d="M52.38,349.78c-2.48,2.77-5.58,5-9.16,6.39l-2.06,0.8v-19.4l2.04,0.79c3.59,1.38,6.69,3.61,9.18,6.36
				c1.78-2.86,2.88-6.17,3.11-9.77c0.56-9.3-5.27-17.83-13.26-20.8l-6.59-2.2c-2.98-0.99-6.14,0.65-7.13,3.62l-13.97,41.88
				c-0.99,2.98,0.68,6.22,3.66,7.2l31.7,10.58c3.23-3.44,5.33-7.99,5.63-13.07C55.8,357.63,54.62,353.36,52.38,349.78 M34.05,358.16
				h-3.14v-21.75h3.14V358.16z"/>
			<path class="st2" d="M50.55,347.25c-1.77-2.07-3.91-3.82-6.37-5.09v10.22C46.64,351.09,48.8,349.34,50.55,347.25"/>
			<path class="st3" d="M81.38,327.22l-29.09-9.72c3.9,4.27,6.3,9.95,6.3,16.18c0.01,4.92-1.52,9.63-4.2,13.57
				c2.68,3.93,4.23,8.63,4.24,13.55c0.01,5.88-2.11,11.29-5.62,15.48l10.93,3.65c2.98,0.99,6.14-0.65,7.13-3.63l13.97-41.88
				C86.02,331.44,84.36,328.21,81.38,327.22 M73.66,358.09l-3.93,0.01l-8.08-10.88l8.21-10.87l3.96-0.01l-8.22,10.9L73.66,358.09z"
				/>
		</g>
	</g>
</g>
<g>
	<path class="st0" d="M303.18,374.65h30.88v-16.04h-30.88V374.65z M309.24,363.32H328v6.64h-18.76V363.32z M314.74,344.23h3.92
		v11.83h6.13v-26.51h-6.13v10.27h-3.92V344.23z M314.06,350.1h-11.33l0-5.8h9.04v-4.51h-9.04v-4.55l11.33,0v-4.52h-17.45v23.9h17.45
		V350.1z M327.94,329.55v26.51h6.12v-26.51H327.94z M224.26,344.67L224.26,344.67l0-13.95h-6.12v13.78c0,7.64-5,14.11-11.91,16.31
		l-0.26,0.08l3.37,3.44l0.1-0.04c4.96-1.79,9.11-5.28,11.76-9.78c2.65,4.5,6.81,8,11.76,9.78l0.1,0.04l3.38-3.44l-0.26-0.08
		C229.32,358.63,224.33,352.23,224.26,344.67z M239.81,375.36h6.13v-45.82h-6.13V375.36z M257.08,356.74
		c5.99-2.07,12.43-6.43,15.97-12.02c3.53,5.6,9.96,9.95,15.95,12.02l0.11,0.04l3.34-3.95l-0.24-0.08
		c-7.36-2.36-15.91-9.29-16.11-15.82v-6.21h-6.13v6.22c-0.26,6.45-8.76,13.46-16.12,15.82l-0.24,0.08l3.35,3.95L257.08,356.74z"/>
	<rect x="253.46" y="364.62" class="st0" width="39.16" height="4.78"/>
	<g>
		<g>
			<rect x="105.98" y="329.61" class="st0" width="7.67" height="45.78"/>
		</g>
		<g>
			<path class="st0" d="M124.24,329.61v45.77h13.95c11.85-0.02,17.46-4.2,17.47-12.58l0,0c0-5.25-2.98-9.23-7.89-10.7l0,0
				l-0.45-0.14l0.44-0.18c4.56-1.92,6.76-5.23,6.77-10.2l0,0c-0.01-7.82-5.34-11.95-16.15-11.97l0,0H124.24z M136.87,355.14
				c5.47,0.01,10.74,0.87,10.75,7.09l0,0c0,2.24-0.77,4.05-2.43,5.1l0,0c-1.66,1.05-4.18,1.52-7.68,1.52l0,0h-5.58l0,0v-13.71
				H136.87 M139.4,336.14c2.2,0.01,7.46,0.76,7.47,6.07l0,0c0.01,2.93-1.18,4.58-3.11,5.43l0,0c-1.92,0.86-4.55,0.97-7.52,0.97l0,0
				h-4.32l0,0v-12.47H139.4"/>
		</g>
	</g>
	<g>
		<path class="st0" d="M198.65,329.61L198.65,329.61c-2.42,2.53-20.6,21.71-20.6,21.71s19.72,21.38,22.21,24.06h-10.69l0,0
			c-1-1.14-17.9-20.61-17.9-20.61v20.63H164v-45.78h7.67v18.52c0,0,16.13-17.5,17.08-18.52H198.65z"/>
	</g>
</g>
<g>
	<path class="st0" d="M105.98,318.16V301.9h1.84v16.26H105.98z"/>
	<path class="st0" d="M121.71,313.83c-0.17,2.74-2.46,4.32-5.18,4.32h-6.09v-16.28h6.25c2.61,0,4.08,1.59,4.35,3.52
		c0.23,1.91-0.7,3.29-1.86,4.07C120.26,310.04,121.84,311.42,121.71,313.83z M119.04,306.13c0-1.47-0.93-2.32-2.69-2.32h-4.02v4.9h4
		C118.01,308.71,119.04,307.74,119.04,306.13z M119.64,313.4c0.04-1.75-1.12-2.74-3.11-2.74h-4.2v5.63h4.16
		C118.63,316.29,119.58,315.21,119.64,313.4z"/>
	<path class="st0" d="M133.57,318.2l-6.03-7.61c-1.01,1.01-1.82,1.79-2.17,2.14v5.43h-1.88V301.9h1.88v8.07
		c1.93-1.93,4.89-5.15,7.04-8.09h2.38c-2.07,2.83-4.1,5.27-5.86,7.17l6.98,9.15H133.57z"/>
	<path class="st0" d="M138.03,316.63l-1.49-1.3c5.21-2.6,7.09-7.72,7.31-10.67h-6.26v-1.85h8.54
		C146.11,307.39,143.53,313.81,138.03,316.63z M149.95,320v-19.36h1.98V320H149.95z"/>
	<path class="st0" d="M166.78,304.66v-4.03h1.98v10.3h-1.98v-4.42H163c-0.4,2.24-2.44,3.72-4.63,3.72c-2.44,0-4.69-1.8-4.69-4.51
		c0-2.68,2.22-4.49,4.69-4.49c2.12,0,4.08,1.34,4.58,3.43H166.78z M158.36,303.16c-1.41,0-2.65,1.12-2.65,2.51
		c0,1.43,1.25,2.57,2.65,2.57c1.41,0,2.65-1.14,2.65-2.57C161.02,304.26,159.77,303.16,158.36,303.16z M156.29,319.77v-7.9h1.96
		v2.07h8.52v-2.07h1.98v7.9H156.29z M166.76,315.73h-8.52v2.22h8.52V315.73z"/>
	<path class="st0" d="M169.93,312.36v-1.87h17.43v1.87H169.93z M178.62,308.86c-4.26,0-6.63-1.72-6.63-4.14
		c0-2.38,2.36-4.22,6.63-4.22c4.32,0,6.63,1.83,6.63,4.22C185.26,307.15,182.96,308.86,178.62,308.86z M172.16,319.56v-5.5h1.98
		v3.65h11.49v1.85H172.16z M178.64,302.22c-2.73,0-4.54,1.06-4.54,2.49c0,1.45,1.9,2.4,4.52,2.4c2.67,0,4.58-0.9,4.58-2.35
		C183.2,303.29,181.37,302.22,178.64,302.22z"/>
	<path class="st0" d="M187.53,305.36v-1.69h8.85v1.69H187.53z M191.93,312.4c-2.4,0-3.98-1.28-3.98-3.1c0-1.8,1.58-3.01,4-3.01
		c2.46,0,3.98,1.21,3.98,3.04C195.93,311.13,194.38,312.4,191.93,312.4z M189.63,302.52v-1.69h4.59v1.69H189.63z M196.62,320.37
		c-4.36,0-6.75-1.56-6.75-3.65c0-2.09,2.44-3.52,6.79-3.52c4.38,0,6.73,1.5,6.73,3.59C203.39,318.87,201,320.37,196.62,320.37z
		 M191.95,307.89c-1.37,0-2.04,0.55-2.04,1.43c0,0.9,0.67,1.47,2.04,1.47c1.41,0,2.04-0.57,2.04-1.47
		C193.98,308.44,193.35,307.89,191.95,307.89z M196.64,314.89c-2.73,0-4.61,0.62-4.61,1.85c0,1.21,1.86,1.89,4.61,1.89
		c2.67,0,4.52-0.68,4.52-1.87C201.15,315.51,199.35,314.89,196.64,314.89z M201.55,312.73v-5.26h-2.04v4.84h-1.86v-11.35h1.86v4.51
		h2.04v-4.84h1.86v12.1H201.55z"/>
	<path class="st0" d="M209.72,310.25v-1.85h12.46c0.2-0.99,0.65-3.37,0.79-5.13h-11.25v-1.85h13.53c-0.14,3.19-0.81,5.94-1.05,6.98
		h2.95v1.85H209.72z M211.98,319.77v-7.37h12.91v7.37H211.98z M222.86,314.23H214v3.72h8.85V314.23z"/>
	<path class="st0" d="M231.29,311.17h-4.54v-1.85h17.43v1.85h-4.5v2.46c1.76,0.64,2.71,1.72,2.71,3.04c0,2.13-2.48,3.67-6.93,3.67
		c-4.44,0-6.95-1.54-6.95-3.67c0-1.34,0.97-2.42,2.77-3.06V311.17z M235.47,307.89c-4.42,0-6.67-1.52-6.67-3.67
		c0-2.11,2.26-3.7,6.67-3.7c4.44,0,6.69,1.61,6.69,3.72C242.16,306.38,239.9,307.89,235.47,307.89z M235.47,314.69
		c-2.81,0-4.69,0.73-4.69,1.96c0,1.19,1.88,1.96,4.69,1.96c2.77,0,4.67-0.75,4.67-1.94C240.14,315.46,238.24,314.69,235.47,314.69z
		 M235.47,302.15c-2.87,0-4.52,0.88-4.52,2.05c0,1.14,1.68,2.02,4.52,2.02c2.77,0,4.56-0.86,4.56-2
		C240.02,303.05,238.28,302.15,235.47,302.15z M237.69,311.17h-4.4v1.98c0.65-0.09,1.39-0.13,2.18-0.13c0.81,0,1.54,0.04,2.22,0.13
		V311.17z"/>
	<path class="st0" d="M243.78,317.13v-1.85h11.92c0.32-1.87,1.19-7.61,1.27-10.21h-11.35v-1.85h13.53c0,3.15-0.79,9.53-1.41,12.06
		h3.47v1.85H243.78z"/>
	<path class="st0" d="M278.24,311.61h-7.67v1.98h-2.12v-1.98h-7.64v-1.78h17.43V311.61z M263.07,308.44v-4.47h10.64v-1.28h-10.64
		v-1.63h12.74v4.47h-10.66v1.28h11.01v1.63H263.07z M263.07,319.77v-6.84h2v1.65h8.89v-1.65h2v6.84H263.07z M273.96,316.23h-8.89
		v1.8h8.89V316.23z"/>
</g>
<g>
	<g>
		<g>
			<path class="st0" d="M30.06,22.67c-2.08,1.04-3.63,2.83-4.37,5.04L11.77,69.56c-0.74,2.2-0.57,4.57,0.47,6.66
				c1.04,2.07,2.83,3.62,5.04,4.36l45.68,15.33c2.22,0.73,4.58,0.57,6.65-0.48c2.08-1.05,3.64-2.83,4.36-5.04L87.9,48.54
				c1.52-4.56-0.96-9.5-5.51-11.03L36.71,22.19C34.49,21.46,32.14,21.62,30.06,22.67"/>
			<path class="st1" d="M52.38,62.87c-2.48,2.77-5.58,5-9.16,6.39l-2.06,0.8v-19.4l2.04,0.79c3.59,1.38,6.69,3.61,9.18,6.36
				c1.78-2.86,2.88-6.17,3.11-9.77c0.56-9.3-5.27-17.83-13.26-20.8l-6.59-2.2c-2.98-0.99-6.14,0.65-7.13,3.62L14.53,70.55
				c-0.99,2.98,0.68,6.22,3.66,7.2l31.7,10.58c3.23-3.44,5.33-7.99,5.63-13.07C55.8,70.73,54.62,66.45,52.38,62.87 M34.05,71.26
				h-3.14V49.51h3.14V71.26z"/>
			<path class="st2" d="M50.55,60.34c-1.77-2.07-3.91-3.82-6.37-5.09v10.22C46.64,64.19,48.8,62.43,50.55,60.34"/>
			<path class="st3" d="M81.38,40.32L52.29,30.6c3.9,4.27,6.3,9.95,6.3,16.18c0.01,4.92-1.52,9.63-4.2,13.57
				c2.68,3.93,4.23,8.63,4.24,13.55c0.01,5.88-2.11,11.29-5.62,15.48l10.93,3.65c2.98,0.99,6.14-0.65,7.13-3.63l13.97-41.88
				C86.02,44.54,84.36,41.31,81.38,40.32 M73.66,71.18l-3.93,0.01l-8.08-10.88l8.21-10.87l3.96-0.01l-8.22,10.9L73.66,71.18z"/>
		</g>
	</g>
</g>
<g>
	<path class="st3" d="M303.18,87.75h30.88V71.71h-30.88V87.75z M309.24,76.41H328v6.64h-18.76V76.41z M314.74,57.33h3.92v11.83h6.13
		V42.65h-6.13v10.27h-3.92V57.33z M314.06,63.19h-11.33l0-5.8h9.04v-4.51h-9.04v-4.55l11.33,0v-4.52h-17.45v23.9h17.45V63.19z
		 M327.94,42.64v26.51h6.12V42.64H327.94z M224.26,57.77L224.26,57.77l0-13.95h-6.12V57.6c0,7.64-5,14.11-11.91,16.31l-0.26,0.08
		l3.37,3.44l0.1-0.04c4.96-1.79,9.11-5.28,11.76-9.78c2.65,4.5,6.81,8,11.76,9.78l0.1,0.04l3.38-3.44l-0.26-0.08
		C229.32,71.73,224.33,65.33,224.26,57.77z M239.81,88.46h6.13V42.64h-6.13V88.46z M257.08,69.84c5.99-2.07,12.43-6.43,15.97-12.02
		c3.53,5.6,9.96,9.95,15.95,12.02l0.11,0.04l3.34-3.95l-0.24-0.08c-7.36-2.36-15.91-9.29-16.11-15.82v-6.21h-6.13v6.22
		c-0.26,6.45-8.76,13.46-16.12,15.82l-0.24,0.08l3.35,3.95L257.08,69.84z"/>
	<rect x="253.46" y="77.71" class="st3" width="39.16" height="4.78"/>
	<g>
		<g>
			<rect x="105.98" y="42.71" class="st3" width="7.67" height="45.78"/>
		</g>
		<g>
			<path class="st3" d="M124.24,42.7v45.77h13.95c11.85-0.02,17.46-4.2,17.47-12.58l0,0c0-5.25-2.98-9.23-7.89-10.7l0,0l-0.45-0.14
				l0.44-0.18c4.56-1.92,6.76-5.23,6.77-10.2l0,0c-0.01-7.82-5.34-11.95-16.15-11.97l0,0H124.24z M136.87,68.24
				c5.47,0.01,10.74,0.87,10.75,7.09l0,0c0,2.24-0.77,4.05-2.43,5.1l0,0c-1.66,1.05-4.18,1.52-7.68,1.52l0,0h-5.58l0,0V68.24H136.87
				 M139.4,49.24c2.2,0.01,7.46,0.76,7.47,6.07l0,0c0.01,2.93-1.18,4.58-3.11,5.43l0,0c-1.92,0.86-4.55,0.97-7.52,0.97l0,0h-4.32
				l0,0V49.24H139.4"/>
		</g>
	</g>
	<g>
		<path class="st3" d="M198.65,42.71L198.65,42.71c-2.42,2.53-20.6,21.71-20.6,21.71s19.72,21.38,22.21,24.06h-10.69l0,0
			c-1-1.14-17.9-20.61-17.9-20.61v20.63H164V42.71h7.67v18.52c0,0,16.13-17.5,17.08-18.52H198.65z"/>
	</g>
</g>
<g>
	<path class="st3" d="M105.98,31.25V14.99h1.84v16.26H105.98z"/>
	<path class="st3" d="M121.71,26.93c-0.17,2.74-2.46,4.32-5.18,4.32h-6.09V14.97h6.25c2.61,0,4.08,1.59,4.35,3.52
		c0.23,1.91-0.7,3.29-1.86,4.07C120.26,23.13,121.84,24.51,121.71,26.93z M119.04,19.23c0-1.47-0.93-2.32-2.69-2.32h-4.02v4.9h4
		C118.01,21.8,119.04,20.84,119.04,19.23z M119.64,26.49c0.04-1.75-1.12-2.74-3.11-2.74h-4.2v5.63h4.16
		C118.63,29.39,119.58,28.31,119.64,26.49z"/>
	<path class="st3" d="M133.57,31.3l-6.03-7.61c-1.01,1.01-1.82,1.79-2.17,2.14v5.43h-1.88V14.99h1.88v8.07
		c1.93-1.93,4.89-5.15,7.04-8.09h2.38c-2.07,2.83-4.1,5.27-5.86,7.17l6.98,9.15H133.57z"/>
	<path class="st3" d="M138.03,29.72l-1.49-1.3c5.21-2.6,7.09-7.72,7.31-10.67h-6.26v-1.85h8.54
		C146.11,20.48,143.53,26.91,138.03,29.72z M149.95,33.09V13.73h1.98v19.36H149.95z"/>
	<path class="st3" d="M166.78,17.75v-4.03h1.98v10.3h-1.98V19.6H163c-0.4,2.24-2.44,3.72-4.63,3.72c-2.44,0-4.69-1.8-4.69-4.51
		c0-2.68,2.22-4.49,4.69-4.49c2.12,0,4.08,1.34,4.58,3.43H166.78z M158.36,16.26c-1.41,0-2.65,1.12-2.65,2.51
		c0,1.43,1.25,2.57,2.65,2.57c1.41,0,2.65-1.14,2.65-2.57C161.02,17.36,159.77,16.26,158.36,16.26z M156.29,32.87v-7.9h1.96v2.07
		h8.52v-2.07h1.98v7.9H156.29z M166.76,28.82h-8.52v2.22h8.52V28.82z"/>
	<path class="st3" d="M169.93,25.46v-1.87h17.43v1.87H169.93z M178.62,21.96c-4.26,0-6.63-1.72-6.63-4.14
		c0-2.38,2.36-4.22,6.63-4.22c4.32,0,6.63,1.83,6.63,4.22C185.26,20.24,182.96,21.96,178.62,21.96z M172.16,32.65v-5.5h1.98v3.65
		h11.49v1.85H172.16z M178.64,15.31c-2.73,0-4.54,1.06-4.54,2.49c0,1.45,1.9,2.4,4.52,2.4c2.67,0,4.58-0.9,4.58-2.35
		C183.2,16.39,181.37,15.31,178.64,15.31z"/>
	<path class="st3" d="M187.53,18.46v-1.69h8.85v1.69H187.53z M191.93,25.5c-2.4,0-3.98-1.28-3.98-3.1c0-1.8,1.58-3.01,4-3.01
		c2.46,0,3.98,1.21,3.98,3.04C195.93,24.22,194.38,25.5,191.93,25.5z M189.63,15.62v-1.69h4.59v1.69H189.63z M196.62,33.46
		c-4.36,0-6.75-1.56-6.75-3.65c0-2.09,2.44-3.52,6.79-3.52c4.38,0,6.73,1.5,6.73,3.59C203.39,31.97,201,33.46,196.62,33.46z
		 M191.95,20.99c-1.37,0-2.04,0.55-2.04,1.43c0,0.9,0.67,1.47,2.04,1.47c1.41,0,2.04-0.57,2.04-1.47
		C193.98,21.54,193.35,20.99,191.95,20.99z M196.64,27.99c-2.73,0-4.61,0.62-4.61,1.85c0,1.21,1.86,1.89,4.61,1.89
		c2.67,0,4.52-0.68,4.52-1.87C201.15,28.6,199.35,27.99,196.64,27.99z M201.55,25.83v-5.26h-2.04v4.84h-1.86V14.06h1.86v4.51h2.04
		v-4.84h1.86v12.1H201.55z"/>
	<path class="st3" d="M209.72,23.34v-1.85h12.46c0.2-0.99,0.65-3.37,0.79-5.13h-11.25v-1.85h13.53c-0.14,3.19-0.81,5.94-1.05,6.98
		h2.95v1.85H209.72z M211.98,32.87V25.5h12.91v7.37H211.98z M222.86,27.33H214v3.72h8.85V27.33z"/>
	<path class="st3" d="M231.29,24.27h-4.54v-1.85h17.43v1.85h-4.5v2.46c1.76,0.64,2.71,1.72,2.71,3.04c0,2.13-2.48,3.67-6.93,3.67
		c-4.44,0-6.95-1.54-6.95-3.67c0-1.34,0.97-2.42,2.77-3.06V24.27z M235.47,20.99c-4.42,0-6.67-1.52-6.67-3.67
		c0-2.11,2.26-3.7,6.67-3.7c4.44,0,6.69,1.61,6.69,3.72C242.16,19.47,239.9,20.99,235.47,20.99z M235.47,27.79
		c-2.81,0-4.69,0.73-4.69,1.96c0,1.19,1.88,1.96,4.69,1.96c2.77,0,4.67-0.75,4.67-1.94C240.14,28.56,238.24,27.79,235.47,27.79z
		 M235.47,15.25c-2.87,0-4.52,0.88-4.52,2.05c0,1.14,1.68,2.02,4.52,2.02c2.77,0,4.56-0.86,4.56-2
		C240.02,16.15,238.28,15.25,235.47,15.25z M237.69,24.27h-4.4v1.98c0.65-0.09,1.39-0.13,2.18-0.13c0.81,0,1.54,0.04,2.22,0.13
		V24.27z"/>
	<path class="st3" d="M243.78,30.23v-1.85h11.92c0.32-1.87,1.19-7.61,1.27-10.21h-11.35v-1.85h13.53c0,3.15-0.79,9.53-1.41,12.06
		h3.47v1.85H243.78z"/>
	<path class="st3" d="M278.24,24.71h-7.67v1.98h-2.12v-1.98h-7.64v-1.78h17.43V24.71z M263.07,21.54v-4.47h10.64V15.8h-10.64v-1.63
		h12.74v4.47h-10.66v1.28h11.01v1.63H263.07z M263.07,32.87v-6.84h2v1.65h8.89v-1.65h2v6.84H263.07z M273.96,29.33h-8.89v1.8h8.89
		V29.33z"/>
</g>
</svg>
