<svg width="32" height="32" viewBox="0 0 32 32" fill="none" xmlns="http://www.w3.org/2000/svg">
<g clip-path="url(#clip0_295_5225)">
<path fill-rule="evenodd" clip-rule="evenodd" d="M28.1187 15.6154C29.4027 15.6153 29.5951 15.566 29.5962 15.7756C29.6017 16.774 29.6603 27.5237 29.558 28.2564C29.381 29.5254 28.2991 31.9562 25.1344 31.9698C23.5282 31.9767 5.82128 32.0531 5.05609 31.9324C3.3155 31.6576 1.38027 30.3245 1.34255 27.5764C1.3216 26.0464 1.37762 26.0481 1.34303 8.44983C1.34289 8.35895 1.02514 5.31519 4.03519 4.02788C5.04015 3.59807 5.3417 3.73976 14.2826 3.71751C14.327 3.71744 14.813 3.71622 14.8369 3.76011C14.9098 3.89413 14.9037 3.9026 14.8662 5.6674C14.8626 5.84062 14.762 5.81505 11.7051 5.81505C5.21249 5.81505 5.18658 5.78189 4.66765 6.03928C4.33267 6.20552 3.45224 6.79525 3.43996 8.04289C3.41337 10.7475 3.43793 26.0137 3.44044 27.5764C3.44301 29.1603 4.66765 29.846 5.60126 29.8736C7.16326 29.9199 7.16231 29.8222 25.1344 29.8725C27.1088 29.8781 27.4802 28.275 27.4984 27.7117C27.5196 27.0572 27.462 15.7427 27.5298 15.6603C27.5657 15.6165 28.0714 15.6154 28.1187 15.6154ZM10.2297 16.7975C10.3018 16.5902 11.9533 11.7946 12.0409 11.5679C12.0755 11.4782 12.5426 11.4777 12.5869 11.4777C14.3031 11.476 14.3401 11.4549 14.4029 11.5777C14.5034 11.7745 16.7005 18.1937 16.8978 18.77C18.7162 24.0829 18.7852 24.1144 18.6961 24.1926C18.6568 24.227 16.123 24.207 16.1089 24.2033C15.9094 24.152 15.5337 22.2136 15.3561 22.1069C15.3011 22.0738 11.1471 22.0835 11.102 22.1041C10.9041 22.1946 10.5232 24.1341 10.353 24.1967C10.1642 24.2663 10.1569 24.2262 7.8373 24.2118C7.60025 24.2103 7.73326 24.0512 8.37867 22.1492C8.61972 21.4795 9.08256 20.1009 9.31764 19.4327C9.41178 19.1586 9.41361 19.1643 9.5085 18.8856L9.60067 18.6229C9.73923 18.2125 9.73978 18.2174 9.88112 17.8125C9.89713 17.7648 9.93233 17.6416 10.2297 16.7975ZM14.6492 19.6337L14.5563 19.3009C13.9794 17.4754 13.4081 15.5039 13.3121 15.1725C13.3084 15.16 13.229 14.886 13.149 15.1715C12.6158 17.0754 11.6623 19.8634 11.7308 19.9595C11.7854 20.0358 14.6626 19.9996 14.6881 19.9779C14.7708 19.9073 14.6562 19.6552 14.6492 19.6337ZM23.2661 11.9767C23.2737 12.953 23.3601 24.0603 23.2308 24.18C23.1882 24.2194 20.74 24.2481 20.6846 24.1627C20.6699 24.14 20.6633 24.1419 20.6645 12.655C20.6646 11.7661 20.6207 11.4837 20.7905 11.4785C20.9856 11.4725 23.1227 11.407 23.2308 11.507C23.2906 11.5624 23.2597 11.5752 23.2661 11.9767ZM26.0894 4.29897C26.5725 4.5 26.5719 4.49505 26.6216 4.52428C27.4676 5.02151 25.2097 5.44744 24.1347 6.04152C22.8932 6.7277 22.7533 8.66477 22.2383 9.41484C21.8547 9.78842 21.7293 9.2619 21.3364 8.24629C21.1639 7.80048 21.165 7.80333 21.15 7.76481C20.3048 5.5915 19.7484 6.06533 17.4813 5.03521C16.6605 4.66231 18.1435 4.23806 19.1657 3.83742C21.018 3.11143 20.7326 2.63327 21.7297 0.30485C22.1405 -0.654461 22.5844 0.919477 22.7428 1.33565C23.4952 3.31294 23.6574 3.32345 25.5484 4.0896L26.0894 4.29897ZM30.959 10.8708C30.6857 10.9796 30.6925 10.9769 30.4212 11.0869C29.144 11.7073 29.4535 12.0196 28.7444 13.6121C28.3542 14.4887 27.9948 12.0042 27.3006 11.439C26.4208 10.7225 24.1317 10.5807 25.6042 9.9984C27.1756 9.377 27.4251 9.49976 28.0055 7.91497C28.1082 7.63431 28.4823 6.41252 28.7666 7.10677C29.4961 8.88825 29.3248 9.16477 30.8296 9.74372C31.5874 10.0354 32.5265 10.2382 31.5785 10.6221C31.2684 10.7476 31.2728 10.7478 30.959 10.8708ZM31.2284 2.91488C31.2583 2.92654 31.257 2.92627 31.8978 3.18773C32.1427 3.51973 31.4539 3.4768 30.8471 3.86035C30.3187 4.19425 30.2676 5.85019 29.876 4.85778C29.5197 3.95449 29.5101 3.88883 28.6037 3.53974C28.5674 3.52577 28.1444 3.36286 28.2176 3.24471C28.3445 3.03988 29.3857 2.98155 29.6453 2.33029C29.7325 2.11142 30.0066 1.16432 30.1956 1.48032C30.5553 2.08179 30.233 2.46513 31.2284 2.91488Z" fill="url(#paint0_linear_295_5225)"/>
</g>
<defs>
<linearGradient id="paint0_linear_295_5225" x1="32.1666" y1="32.5" x2="1.83331" y2="4.33332" gradientUnits="userSpaceOnUse">
<stop stop-color="#8E51FF"/>
<stop offset="0.4" stop-color="#1579F2"/>
<stop offset="0.8" stop-color="#00AB55"/>
</linearGradient>
<clipPath id="clip0_295_5225">
<rect width="32" height="32" fill="white"/>
</clipPath>
</defs>
</svg>
