<svg width="32" height="32" viewBox="0 0 32 32" fill="none" xmlns="http://www.w3.org/2000/svg">
<g clip-path="url(#clip0_295_5241)">
<path fill-rule="evenodd" clip-rule="evenodd" d="M10.2298 16.7975C10.3019 16.5902 11.9533 11.7946 12.0409 11.5679C12.0755 11.4782 12.5426 11.4777 12.5869 11.4777C14.3031 11.476 14.3401 11.4549 14.4029 11.5777C14.5035 11.7745 16.7006 18.1937 16.8978 18.77C18.7162 24.0829 18.7852 24.1144 18.6961 24.1926C18.6568 24.227 16.123 24.207 16.1089 24.2033C15.9094 24.152 15.5337 22.2136 15.3561 22.1069C15.3011 22.0738 11.1471 22.0835 11.102 22.1041C10.9041 22.1946 10.5232 24.1341 10.3531 24.1967C10.1642 24.2662 10.1569 24.2262 7.83732 24.2118C7.60027 24.2103 7.73327 24.0512 8.37869 22.1492C8.61974 21.4795 9.08258 20.1009 9.31766 19.4327C9.4118 19.1586 9.41363 19.1643 9.50851 18.8856L9.60069 18.6229C9.73925 18.2125 9.73979 18.2174 9.88114 17.8125C9.89715 17.7648 9.93235 17.6416 10.2298 16.7975ZM14.6492 19.6337L14.5564 19.3009C13.9794 17.4754 13.4081 15.5039 13.3121 15.1725C13.3085 15.16 13.229 14.886 13.1491 15.1715C12.6158 17.0754 11.6623 19.8634 11.7309 19.9595C11.7854 20.0358 14.6626 19.9996 14.6881 19.9779C14.7708 19.9073 14.6562 19.6552 14.6492 19.6337ZM23.2661 11.9767C23.2737 12.953 23.3601 24.0603 23.2308 24.18C23.1883 24.2194 20.7401 24.2481 20.6846 24.1627C20.6699 24.14 20.6633 24.1419 20.6645 12.655C20.6646 11.7661 20.6208 11.4837 20.7905 11.4785C20.9856 11.4725 23.1227 11.407 23.2308 11.507C23.2907 11.5624 23.2597 11.5752 23.2661 11.9767ZM26.0894 4.29897C26.5725 4.5 26.572 4.49505 26.6217 4.52428C27.4676 5.02151 25.2098 5.44744 24.1347 6.04152C22.8932 6.7277 22.7533 8.66477 22.2383 9.41484C21.8547 9.78842 21.7293 9.2619 21.3364 8.24629C21.1639 7.80048 21.165 7.80333 21.1501 7.76481C20.3048 5.5915 19.7485 6.06533 17.4813 5.03521C16.6605 4.66231 18.1435 4.23806 19.1657 3.83742C21.018 3.11143 20.7326 2.63327 21.7298 0.30485C22.1406 -0.654461 22.5844 0.919477 22.7428 1.33565C23.4952 3.31294 23.6575 3.32345 25.5484 4.0896L26.0894 4.29897ZM30.959 10.8708C30.6857 10.9796 30.6925 10.9769 30.4213 11.0869C29.1441 11.7073 29.4535 12.0196 28.7444 13.6121C28.3542 14.4887 27.9948 12.0042 27.3007 11.439C26.4208 10.7225 24.1318 10.5807 25.6042 9.9984C27.1757 9.37699 27.4251 9.49976 28.0055 7.91497C28.1082 7.63431 28.4824 6.41252 28.7666 7.10677C29.4961 8.88825 29.3248 9.16477 30.8296 9.74372C31.5874 10.0354 32.5265 10.2382 31.5786 10.6221C31.2684 10.7476 31.2728 10.7478 30.959 10.8708ZM31.2284 2.91488C31.2583 2.92654 31.257 2.92627 31.8978 3.18773C32.1427 3.51973 31.454 3.4768 30.8471 3.86035C30.3187 4.19425 30.2676 5.85019 29.876 4.85778C29.5197 3.95449 29.5101 3.88883 28.6037 3.53974C28.5674 3.52577 28.1444 3.36286 28.2176 3.24471C28.3445 3.03988 29.3857 2.98155 29.6453 2.33029C29.7325 2.11142 30.0066 1.16432 30.1956 1.48032C30.5553 2.08179 30.2331 2.46513 31.2284 2.91488Z" fill="url(#paint0_linear_295_5241)"/>
</g>
<defs>
<linearGradient id="paint0_linear_295_5241" x1="32.1666" y1="32.5" x2="1.83331" y2="4.33332" gradientUnits="userSpaceOnUse">
<stop stop-color="#8E51FF"/>
<stop offset="0.4" stop-color="#1579F2"/>
<stop offset="0.8" stop-color="#00AB55"/>
</linearGradient>
<clipPath id="clip0_295_5241">
<rect width="32" height="32" fill="white"/>
</clipPath>
</defs>
</svg>
