<svg width="96" height="96" viewBox="0 0 96 96" fill="none" xmlns="http://www.w3.org/2000/svg">
<path d="M72.5607 9.28181C72.661 8.87694 72.8123 8.18248 72.8952 7.74006C72.9782 7.29765 73.0665 6.96651 73.0906 7.00271C73.1134 7.0389 73.2673 7.70387 73.4319 8.47742C73.5965 9.25098 73.9003 10.2471 74.1064 10.6895C74.3125 11.1319 74.6979 11.6896 74.9616 11.9296C75.2266 12.1696 75.6829 12.486 75.9774 12.6334C76.2718 12.7809 76.949 13.0182 77.4829 13.1603C78.0169 13.3024 78.7088 13.4539 79.022 13.4955C79.3352 13.537 79.5908 13.6322 79.5908 13.706C79.5908 13.7797 79.4851 13.8387 79.3566 13.8373C79.2281 13.836 78.5349 13.9875 77.8175 14.1725C77.1002 14.3589 76.2865 14.623 76.0108 14.7624C75.7351 14.9005 75.3069 15.1874 75.0606 15.3992C74.813 15.611 74.4597 16.0548 74.275 16.3873C74.0903 16.7197 73.7397 17.7748 73.4948 18.7334C73.2512 19.692 73.0478 20.4307 73.0424 20.3757C73.0371 20.3207 72.8818 19.6115 72.6985 18.8004C72.5138 17.9893 72.2207 17.0388 72.0467 16.6889C71.8714 16.339 71.5556 15.8497 71.3441 15.6016C71.1313 15.3536 70.5974 14.9836 70.1557 14.7771C69.7141 14.572 68.8254 14.2771 68.1817 14.1216C67.538 13.9674 66.8447 13.8387 66.6427 13.836C66.3603 13.8333 66.3215 13.8025 66.4754 13.7073C66.5864 13.6389 67.1579 13.4888 67.7468 13.3735C68.3356 13.2595 69.2028 13.0303 69.6753 12.8654C70.2869 12.6522 70.7178 12.3841 71.1809 11.9296C71.5368 11.5797 71.9517 11.0059 72.103 10.656C72.2542 10.3061 72.4603 9.68669 72.5607 9.28181Z" fill="#FCB634"/>
<path d="M44.5338 10.5554C44.6824 9.59687 44.8376 8.6316 44.8764 8.41039C44.9166 8.18382 44.9929 8.06718 45.0517 8.14226C45.1093 8.216 45.2619 8.93995 45.3917 9.75104C45.5215 10.5621 45.7985 12.2219 46.0086 13.4378C46.2187 14.6538 46.5747 16.5857 46.8009 17.7279C47.0271 18.8702 47.4246 20.6505 47.6828 21.6828C47.9425 22.7151 48.269 23.9217 48.4082 24.3641C48.5461 24.8066 48.8806 25.8027 49.1496 26.5762C49.4173 27.3498 49.9593 28.6475 50.3514 29.4586C50.7436 30.2697 51.4368 31.5058 51.8918 32.207C52.4419 33.0502 53.2234 33.9793 54.2111 34.958C55.0435 35.7825 56.2039 36.7665 56.8396 37.1861C57.4645 37.5991 58.5191 38.2104 59.1816 38.5456C59.8441 38.8794 60.7474 39.303 61.1891 39.4867C61.6307 39.6704 62.5341 40.0109 63.1965 40.2442C63.859 40.4774 65.2441 40.9011 66.2746 41.184C67.3051 41.4682 69.0516 41.8891 70.1557 42.1211C71.2598 42.353 72.5847 42.6292 73.1 42.7364C73.6152 42.8437 74.3687 42.9845 74.7729 43.0488C75.177 43.1132 76.6826 43.3585 78.1186 43.5931C79.5546 43.8277 80.818 44.0476 80.9291 44.0811C81.0402 44.1146 81.0991 44.1682 81.0629 44.2018C81.0268 44.2353 80.2425 44.3827 79.3231 44.5302C78.4024 44.6777 77.4093 44.8372 77.1149 44.8842C76.8205 44.9324 75.4648 45.1724 74.1037 45.4177C72.7427 45.6644 70.9052 46.0224 70.0219 46.2141C69.1386 46.4044 67.633 46.7678 66.6761 47.0198C65.7192 47.2719 64.3943 47.658 63.7318 47.8765C63.0694 48.095 62.0603 48.4583 61.4902 48.6862C60.9201 48.9128 59.9565 49.3485 59.3489 49.6528C58.7413 49.9572 57.6733 50.5833 56.9734 51.0458C56.2734 51.507 55.1894 52.3636 54.5644 52.9495C53.9394 53.534 53.0923 54.4618 52.6828 55.0088C52.2746 55.5557 51.7005 56.395 51.4087 56.8749C51.1169 57.3549 50.5629 58.41 50.1801 59.2211C49.796 60.0322 49.2353 61.4197 48.9328 62.3046C48.6317 63.1894 48.1232 64.939 47.8046 66.1925C47.4848 67.446 46.9816 69.709 46.6858 71.2199C46.39 72.7308 46.026 74.6922 45.8775 75.577C45.7276 76.4619 45.5108 77.7891 45.3957 78.5265C45.2793 79.2638 45.1575 79.9569 45.1227 80.0682C45.0879 80.1795 45.0317 80.2385 44.9969 80.2023C44.9621 80.1661 44.7479 79.0493 44.5218 77.7221C44.2943 76.3948 44.0199 74.7364 43.9115 74.0353C43.8044 73.3341 43.5997 72.1892 43.4592 71.488C43.3173 70.7869 43.0416 69.5213 42.8449 68.6727C42.6481 67.824 42.438 66.8896 42.3791 66.5947C42.3203 66.2997 41.9924 65.1535 41.6511 64.0474C41.3098 62.9414 40.8173 61.4935 40.5564 60.8299C40.2954 60.1662 39.8096 59.0803 39.4763 58.4167C39.1431 57.7531 38.5328 56.698 38.1193 56.0719C37.7058 55.4458 36.8546 54.3974 36.2296 53.7418C35.6033 53.0876 34.7307 52.2631 34.2891 51.9118C33.8474 51.5593 32.8691 50.9037 32.1143 50.4532C31.3595 50.0041 30.0346 49.3391 29.17 48.9758C28.3055 48.6138 26.9645 48.1057 26.1923 47.847C25.4201 47.5896 23.8235 47.1364 22.6458 46.8415C21.4681 46.5452 19.5704 46.1189 18.4301 45.8937C17.4724 45.7045 16.4476 45.503 15.926 45.4005L15.6866 45.3534C15.3186 45.281 13.8732 45.0383 12.4747 44.8131C11.0761 44.5879 9.69097 44.368 9.39654 44.3251C9.0178 44.2688 8.92011 44.2125 9.06197 44.1347C9.17171 44.0744 10.0751 43.8948 11.0694 43.7352C12.0625 43.577 13.5386 43.333 14.3483 43.1949C15.158 43.0555 16.4534 42.8236 17.2256 42.6801C17.9978 42.5353 19.565 42.2002 20.7052 41.9361C21.8455 41.672 23.4126 41.2845 24.1848 41.0754C24.957 40.8662 25.9809 40.5606 26.46 40.397C26.9377 40.2334 27.4503 40.0484 27.5975 39.9854C27.7447 39.9237 28.4072 39.6543 29.0697 39.3861C29.7321 39.118 30.8617 38.5697 31.579 38.1675C32.2963 37.7653 33.3201 37.1137 33.8541 36.7209C34.3881 36.3281 35.2473 35.5881 35.7652 35.0786C36.2818 34.5678 37.0687 33.6683 37.5131 33.0784C37.956 32.4885 38.5583 31.5835 38.85 31.0674C39.1418 30.5512 39.6289 29.586 39.9327 28.9224C40.2365 28.2587 40.7277 27.0213 41.0234 26.174C41.3192 25.3267 41.7421 23.9981 41.9629 23.2246C42.1837 22.451 42.604 20.731 42.8971 19.4037C43.1888 18.0765 43.5207 16.4784 43.6331 15.851C43.7469 15.2236 43.9343 14.1685 44.0493 13.5049C44.1658 12.8412 44.3839 11.514 44.5338 10.5554Z" fill="#FCB634"/>
<path d="M71.5422 67.265C71.6921 66.7488 72.0146 65.317 72.2569 64.0823C72.5004 62.8475 72.7346 61.8823 72.7788 61.9372C72.823 61.9922 72.9327 62.4896 73.0224 63.0419C73.1134 63.5956 73.2753 64.5006 73.3837 65.0529C73.4921 65.6066 73.6741 66.4204 73.7879 66.8628C73.9003 67.3052 74.1907 68.1807 74.4316 68.8067C74.6725 69.4328 75.0794 70.2788 75.3376 70.6836C75.5946 71.0885 76.138 71.7227 76.5461 72.0913C76.953 72.46 77.669 72.9587 78.1374 73.1987C78.6058 73.44 79.5011 73.8087 80.1261 74.0192C80.7511 74.2297 82.2567 74.5943 83.4719 74.8289C84.6871 75.0649 85.7697 75.2861 85.8808 75.3196C86.0129 75.3616 86.0352 75.4246 85.9477 75.5087C85.8741 75.5784 85.0912 75.762 84.2079 75.9149C83.3247 76.069 82.0305 76.3412 81.3306 76.5195C80.6306 76.6978 79.7273 76.9673 79.3231 77.1174C78.919 77.2689 78.1963 77.6242 77.7171 77.9071C77.2367 78.1926 76.5006 78.8067 76.0724 79.2799C75.616 79.7826 75.0834 80.5763 74.7782 81.2078C74.4918 81.7976 74.077 82.9734 73.8561 83.822C73.634 84.6707 73.3181 86.1481 73.1522 87.1066C72.9862 88.0652 72.8042 88.9098 72.7467 88.9835C72.6905 89.0573 72.6048 88.8763 72.5566 88.5813C72.5098 88.2864 72.297 87.171 72.0856 86.1011C71.8741 85.0313 71.5877 83.7657 71.4485 83.2858C71.3107 82.8058 71.0564 82.0819 70.8851 81.677C70.7138 81.2721 70.3538 80.6071 70.0834 80.2023C69.8144 79.7974 69.3286 79.2021 69.0048 78.8817C68.6809 78.5613 67.9944 78.0639 67.4791 77.7757C66.9639 77.4874 66.0003 77.0759 65.3378 76.8614C64.6753 76.6469 63.3196 76.3117 62.3266 76.1146C61.4638 75.9446 60.4858 75.7532 59.979 75.6541L59.7838 75.6159C59.2164 75.506 59.1093 75.451 59.3154 75.3719C59.4626 75.3156 60.0047 75.199 60.5199 75.1105C61.0351 75.0233 61.8783 74.8678 62.3935 74.7646C62.9088 74.6627 63.7814 74.4616 64.3341 74.3155C64.8855 74.1707 65.6697 73.9294 66.0739 73.7805C66.478 73.6304 67.1873 73.2792 67.6477 73.0003C68.1081 72.7214 68.7331 72.2522 69.0369 71.9573C69.3393 71.6623 69.8118 71.0885 70.0861 70.6836C70.3591 70.2788 70.7379 69.5548 70.9252 69.0749C71.1139 68.5949 71.391 67.7811 71.5422 67.265Z" fill="#FCB634"/>
</svg>
