<svg width="96" height="96" viewBox="0 0 96 96" fill="none" xmlns="http://www.w3.org/2000/svg">
<path d="M67.1716 7H27C25.8954 7 25 7.8954 25 9V87C25 88.1046 25.8954 89 27 89H85C86.1046 89 87 88.1046 87 87V26.8284C87 26.298 86.7893 25.7893 86.4142 25.4142L68.5858 7.5858C68.2107 7.2107 67.702 7 67.1716 7Z" fill="white" stroke="#979593" stroke-width="2" stroke-miterlimit="10"/>
<path d="M67 7V25C67 26.1046 67.8954 27 69 27H87" stroke="#979593" stroke-width="2" stroke-miterlimit="10"/>
<path d="M51 61H41V59H51C51.5523 59 52 59.4477 52 60C52 60.5523 51.5523 61 51 61ZM51 55H41V53H51C51.5523 53 52 53.4477 52 54C52 54.5523 51.5523 55 51 55ZM51 49H41V47H51C51.5523 47 52 47.4477 52 48C52 48.5523 51.5523 49 51 49ZM51 43H41V41H51C51.5523 41 52 41.4477 52 42C52 42.5523 51.5523 43 51 43ZM51 67H41V65H51C51.5523 65 52 65.4477 52 66C52 66.5523 51.5523 67 51 67ZM79 61H69C68.4477 61 68 60.5523 68 60C68 59.4477 68.4477 59 69 59H79C79.5523 59 80 59.4477 80 60C80 60.5523 79.5523 61 79 61ZM79 67H69C68.4477 67 68 66.5523 68 66C68 65.4477 68.4477 65 69 65H79C79.5523 65 80 65.4477 80 66C80 66.5523 79.5523 67 79 67ZM79 55H69C68.4477 55 68 54.5523 68 54C68 53.4477 68.4477 53 69 53H79C79.5523 53 80 53.4477 80 54C80 54.5523 79.5523 55 79 55ZM79 49H69C68.4477 49 68 48.5523 68 48C68 47.4477 68.4477 47 69 47H79C79.5523 47 80 47.4477 80 48C80 48.5523 79.5523 49 79 49ZM79 43H69C68.4477 43 68 42.5523 68 42C68 41.4477 68.4477 41 69 41H79C79.5523 41 80 41.4477 80 42C80 42.5523 79.5523 43 79 43ZM65 61H55C54.4477 61 54 60.5523 54 60C54 59.4477 54.4477 59 55 59H65C65.5523 59 66 59.4477 66 60C66 60.5523 65.5523 61 65 61ZM65 67H55C54.4477 67 54 66.5523 54 66C54 65.4477 54.4477 65 55 65H65C65.5523 65 66 65.4477 66 66C66 66.5523 65.5523 67 65 67ZM65 55H55C54.4477 55 54 54.5523 54 54C54 53.4477 54.4477 53 55 53H65C65.5523 53 66 53.4477 66 54C66 54.5523 65.5523 55 65 55ZM65 49H55C54.4477 49 54 48.5523 54 48C54 47.4477 54.4477 47 55 47H65C65.5523 47 66 47.4477 66 48C66 48.5523 65.5523 49 65 49ZM65 43H55C54.4477 43 54 42.5523 54 42C54 41.4477 54.4477 41 55 41H65C65.5523 41 66 41.4477 66 42C66 42.5523 65.5523 43 65 43Z" fill="#C8C6C4"/>
<path d="M12 74H44C46.2091 74 48 72.2091 48 70V38C48 35.7909 46.2091 34 44 34H12C9.7909 34 8 35.7909 8 38V70C8 72.2091 9.7909 74 12 74Z" fill="#107C41"/>
<path d="M16.9492 66L24.834 53.9663L17.6123 42H23.4238L27.3662 49.6486C27.7285 50.3738 27.9775 50.9154 28.1133 51.2722H28.1641C28.4258 50.6922 28.6973 50.1286 28.9805 49.5822L33.1943 42H38.5293L31.1211 53.9L38.7168 66H33.041L28.4873 57.5983C28.2949 57.2867 28.1133 56.9125 27.9434 56.4768H27.876C27.7969 56.7452 27.6211 57.1078 27.3496 57.5646L22.6592 66H16.9492Z" fill="white"/>
</svg>
